<?xml version="1.0"?>
<svg version="1.1" xmlns="http://www.w3.org/2000/svg" width="200" height="51" style=""><path fill="#ffa64d" d="M16.12,40.62l0-1.68l2.38-0.56l0-15.12l-2.38-0.56l0-1.54l7.98-0.14l0,1.68l-2.66,0.56l0,6.16l9.38,0l0-6.16l-2.66-0.56l0-1.54l7.98-0.14l0,1.68l-2.38,0.56l0,15.12l2.38,0.56l0,1.68l-7.98,0l0-1.68l2.66-0.56l0-6.72l-9.38,0l0,6.72l2.66,0.56l0,1.68l-7.98,0z M47.4408,25.5c4.2,0,6.58,2.94,6.58,7.42c0,4.76-2.8,7.98-7,7.98s-6.72-2.52-6.72-7.56c0-4.76,2.94-7.84,7.14-7.84z M47.3008,27.74c-2.8,0-4.06,1.82-4.06,5.46c0,3.36,1.12,5.46,3.92,5.46s3.92-1.96,3.92-5.6c0-3.08-0.98-5.32-3.78-5.32z M62.8016,25.78l0.252,1.988c0.644-0.616,2.772-2.268,5.068-2.268c2.016,0,3.248,0.952,3.892,2.408c0.364-0.364,2.632-2.408,5.208-2.408c3.08,0,4.34,1.96,4.34,5.04l0,7.84l2.1,0.7l0,1.54l-6.72,0l0-1.54l1.82-0.7l0-7.56c0-1.96-0.56-2.94-2.38-2.94c-2.38,0-3.92,2.24-3.92,2.24l0,8.26l1.82,0.7l0,1.54l-6.44,0l0-1.54l1.82-0.7l0-7.56c0-1.96-0.56-2.94-2.38-2.94c-2.38,0-3.92,2.24-3.92,2.24l0,8.26l1.82,0.7l0,1.54l-7,0l0-1.54l2.38-0.7l0-10.36l-2.38-0.56l0-1.54z M100.1424,33.62l-9.66,0c0,3.08,1.652,5.04,4.06,5.04c2.8,0,4.704-1.54,4.704-1.54l0.98,1.456s-2.604,2.324-5.964,2.324c-4.48,0-6.72-2.94-6.72-7.56c0-4.48,2.8-7.84,6.86-7.84s5.88,2.38,5.88,6.58c0,0.7-0.14,1.484-0.14,1.54z M90.5944,31.52l6.72,0c0-2.1-0.812-3.836-3.052-3.836s-3.5,1.736-3.668,3.836z"/><path fill="#ffa64d" d="M111.9632,38.38l0-15.12l-2.38-0.56l0-1.54l5.32-0.14l3.08,0c3.948,0,6.3,1.904,6.3,5.04c0,2.716-1.232,4.564-3.64,5.46c0.448,0.392,0.952,1.12,1.68,2.52l2.212,4.452l1.988,0.448l0,1.68l-4.2,0l-2.38-5.18c-1.316-2.8-1.932-3.36-3.78-3.36l-1.26,0l0,6.3l2.38,0.56l0,1.68l-7.7,0l0-1.68z M114.9032,29.98l2.1,0c2.744,0,4.34-1.288,4.34-3.5c0-1.876-1.456-3.22-3.5-3.22l-2.94,0l0,6.72z M142.304,33.62l-9.66,0c0,3.08,1.652,5.04,4.06,5.04c2.8,0,4.704-1.54,4.704-1.54l0.98,1.456s-2.604,2.324-5.964,2.324c-4.48,0-6.72-2.94-6.72-7.56c0-4.48,2.8-7.84,6.86-7.84s5.88,2.38,5.88,6.58c0,0.7-0.14,1.484-0.14,1.54z M132.756,31.52l6.72,0c0-2.1-0.812-3.836-3.052-3.836s-3.5,1.736-3.668,3.836z M151.3648,25.78l0.252,1.988c0.644-0.616,2.772-2.268,5.068-2.268c2.016,0,3.248,0.952,3.892,2.408c0.364-0.364,2.632-2.408,5.208-2.408c3.08,0,4.34,1.96,4.34,5.04l0,7.84l2.1,0.7l0,1.54l-6.72,0l0-1.54l1.82-0.7l0-7.56c0-1.96-0.56-2.94-2.38-2.94c-2.38,0-3.92,2.24-3.92,2.24l0,8.26l1.82,0.7l0,1.54l-6.44,0l0-1.54l1.82-0.7l0-7.56c0-1.96-0.56-2.94-2.38-2.94c-2.38,0-3.92,2.24-3.92,2.24l0,8.26l1.82,0.7l0,1.54l-7,0l0-1.54l2.38-0.7l0-10.36l-2.38-0.56l0-1.54z M183.2456,25.5c4.2,0,6.58,2.94,6.58,7.42c0,4.76-2.8,7.98-7,7.98s-6.72-2.52-6.72-7.56c0-4.76,2.94-7.84,7.14-7.84z M183.1056,27.74c-2.8,0-4.06,1.82-4.06,5.46c0,3.36,1.12,5.46,3.92,5.46s3.92-1.96,3.92-5.6c0-3.08-0.98-5.32-3.78-5.32z"/></svg>
